<svg width="21" height="17" viewBox="0 0 21 17" fill="none" xmlns="http://www.w3.org/2000/svg">
<path d="M10.7379 0.2811L3.86148 5.35062V11.8114L10.7558 16.7319C11.7027 17.4077 13.0146 16.7281 13.0146 15.5617V1.43831C13.0146 0.261857 11.6825 -0.415256 10.7379 0.2811Z" fill="#797979"/>
<path d="M1.43018 5.35062C0.640316 5.35062 0 5.99342 0 6.78635V10.2321C0 11.0251 0.640316 11.6679 1.43018 11.6679H2.28829V5.35062H1.43018Z" fill="#797979"/>
<path d="M18.2027 5.75546C18.7053 5.25084 19.5203 5.25084 20.023 5.75546C20.5257 6.26008 20.5257 7.07823 20.023 7.58286L19.1128 8.49655L19.9578 9.34481C20.4605 9.84944 20.4605 10.6676 19.9578 11.1722C19.4551 11.6768 18.6402 11.6768 18.1375 11.1722L17.2925 10.3239L16.3824 11.2377C15.8797 11.7423 15.0647 11.7423 14.562 11.2377C14.0594 10.733 14.0594 9.91488 14.562 9.41026L15.4722 8.49655L14.4969 7.51741C13.9942 7.01279 13.9942 6.19464 14.4969 5.69002C14.9995 5.1854 15.8145 5.1854 16.3172 5.69002L17.2925 6.66915L18.2027 5.75546Z" fill="#797979"/>
</svg>
