<svg width="20" height="17" viewBox="0 0 20 17" fill="none" xmlns="http://www.w3.org/2000/svg">
<path d="M10.7643 0.281102L3.87097 5.35061V11.8114L10.7822 16.7319C11.7314 17.4077 13.0466 16.7281 13.0466 15.5617V1.43831C13.0466 0.261854 11.7112 -0.415256 10.7643 0.281102Z" fill="#797979"/>
<path d="M1.43369 5.35061C0.641886 5.35061 0 5.99342 0 6.78635V10.2321C0 11.0251 0.641886 11.6679 1.43369 11.6679H2.29391V5.35061H1.43369Z" fill="#797979"/>
<path d="M16.9176 8.58103C16.9176 9.88937 15.8585 10.95 14.552 10.95C14.552 10.95 14.552 9.88937 14.552 8.58103C14.552 7.27268 14.552 6.21206 14.552 6.21206C15.8585 6.21206 16.9176 7.27268 16.9176 8.58103Z" fill="#797979"/>
<path d="M14.6237 4.99168C16.5636 4.99168 18.1362 6.56654 18.1362 8.50924C18.1362 10.4519 16.5636 12.0268 14.6237 12.0268V13.8933C17.5929 13.8933 20 11.4828 20 8.50924C20 5.53573 17.5929 3.12522 14.6237 3.12522V4.99168Z" fill="#797979"/>
</svg>
